PathFileType	4	(X/Y/Z)	G:\TennisProject\Miami_Dimitrov_Sinner_masked_Sports2D\Miami_Dimitrov_Sinner_masked_Sports2D_px_person01.trc
DataRate	CameraRate	NumFrames	NumMarkers	Units	OrigDataRate	OrigDataStartFrame	OrigNumFrames
25	25	13	22	m	25	124	499
Frame#	Time	Hip			RHip			RKnee			RAnkle			RBigToe			RSmallToe			RHeel			LHip			LKnee			LAnkle			LBigToe			LSmallToe			LHeel			Neck			Head			Nose			RShoulder			RElbow			RWrist			LShoulder			LElbow			LWrist		
		X1	Y1	Z1	X2	Y2	Z2	X3	Y3	Z3	X4	Y4	Z4	X5	Y5	Z5	X6	Y6	Z6	X7	Y7	Z7	X8	Y8	Z8	X9	Y9	Z9	X10	Y10	Z10	X11	Y11	Z11	X12	Y12	Z12	X13	Y13	Z13	X14	Y14	Z14	X15	Y15	Z15	X16	Y16	Z16	X17	Y17	Z17	X18	Y18	Z18	X19	Y19	Z19	X20	Y20	Z20	X21	Y21	Z21	X22	Y22	Z22
124	4.96	507.25455462600326	803.1338997512945	0.0	517.3957909752135	805.1968257170838	0.0	491.9914479525594	849.7926997038497	0.0	486.85426124946014	903.8681800048282	0.0	462.27044329023227	919.4575071553625	0.0	471.6195021563496	917.9422059994135	0.0	487.618337023413	913.7860985932623	0.0	495.9561411742576	807.2802569206369	0.0	469.8195496521065	863.9823743389849	0.0	481.555152580068	927.6366826499486	0.0	464.5808733097219	947.4527663309874	0.0	466.6034209608795	949.1152590201334	0.0	491.6039186290472	937.5151514824238	0.0	481.4444681376408	712.7408438383641	0.0	464.75198327532786	684.7912314933176	0.0	467.2778286835869	705.9500143577218	0.0	507.6521854354279	709.7509464133694	0.0	545.4784765416747	707.8769141599502	0.0	583.419668675195	694.7455767282889	0.0	473.02522239275146	734.3586347546523	0.0	496.37715172258186	757.3737847809188	0.0	519.8186564299766	767.4754687921584	0.0
125	5.0	506.73406625119316	805.7249584403187	0.0	518.7490822836203	806.916927081109	0.0	491.32730385963	848.4271050775235	0.0	489.8167116916318	905.7089253594994	0.0	466.2148598513093	917.0476560389698	0.0	475.8500590136083	916.0167789928141	0.0	491.76382156383136	916.2081175442431	0.0	494.24448434255635	810.7397982936097	0.0	465.5184203326687	865.4551546147279	0.0	465.98437478040705	929.3620401777548	0.0	449.6961703683515	939.0195979305705	0.0	451.19451075823304	944.1473323418381	0.0	472.2725342050235	940.2067625703916	0.0	479.7109835735527	717.6185917226246	0.0	463.1078848608375	688.428705321234	0.0	466.4118764177082	709.3174128957558	0.0	505.031583258664	713.7080651032512	0.0	541.4291257904006	710.4500379990941	0.0	576.6656729683557	695.6428729717574	0.0	470.0117846760676	740.4230723190556	0.0	492.5813352402904	766.1461472048884	0.0	511.9269302315987	781.6734574607435	0.0
126	5.04	506.06367419603737	809.8868721026661	0.0	518.576116244507	809.2437414832541	0.0	489.69788049398994	848.9464172424962	0.0	495.2994235283829	907.315608202981	0.0	474.1456265549997	915.1706815125244	0.0	482.5012512444113	914.4374198656393	0.0	498.5841439244906	917.9624589555827	0.0	494.51789544343944	814.7281323643937	0.0	460.7491431040292	869.3854038692954	0.0	451.43328819114464	931.0514986285854	0.0	434.9970166459527	935.8888707804238	0.0	435.8469049352735	942.2132064556906	0.0	455.51940483719625	940.1935656515036	0.0	478.3361300271103	725.356692492576	0.0	460.5992182915956	694.4148700670265	0.0	465.1720422388338	716.0740948459716	0.0	502.43127867325217	720.6371621871067	0.0	538.1787690074905	716.380841296984	0.0	571.1052413414214	701.2924950902609	0.0	466.54721817127097	748.4941294029942	0.0	486.32329154245787	776.3097272233708	0.0	501.2876948024058	801.989237089897	0.0
127	5.08	504.7194999155089	816.78896160093	0.0	517.1687058865136	814.938643399598	0.0	488.36414249141546	851.079426846195	0.0	502.849346859389	907.4128442832398	0.0	485.54174323199067	915.2677665473717	0.0	492.70541851684675	915.1064381483691	0.0	507.16733062743924	918.1935168090499	0.0	493.97664666998617	820.7659230939345	0.0	455.72027240064176	874.3994689978545	0.0	440.5073272475927	933.7563996635635	0.0	424.65536736227745	943.6428717861652	0.0	423.649617034553	948.2992702193199	0.0	444.4527782606666	941.1761612912787	0.0	476.69384035371775	734.5583056687805	0.0	459.19662215072236	702.2211157771644	0.0	463.191018683647	725.279404693906	0.0	500.80287585728536	730.0659538017027	0.0	536.1764713364676	725.5373460197084	0.0	568.8678907992041	710.9267457392829	0.0	463.1895669109816	758.3053084079384	0.0	479.1260759151086	788.5757292361611	0.0	489.69927520509634	824.6579504544653	0.0
128	5.12	502.50360361964664	825.8272953245021	0.0	515.799595332269	823.6060109975044	0.0	488.823809369546	853.3815553588636	0.0	511.3858143275687	906.5350767999169	0.0	498.2625665424361	916.2115442005255	0.0	504.9140570044326	916.5760206264447	0.0	516.8571656149775	917.4509655826512	0.0	491.4532978035182	829.3074905730064	0.0	450.24357540436813	878.1049224261812	0.0	435.10410478042303	937.5955581726323	0.0	420.48816191875403	954.5400247028458	0.0	418.1096568946725	956.7689807252588	0.0	439.3862381942003	945.9879238244301	0.0	475.34995892006305	744.2605654067457	0.0	458.89955869505343	710.6760623855222	0.0	461.83528876627827	735.1439929223283	0.0	500.44272118582074	740.6377267188863	0.0	536.2414800728584	737.0307301400246	0.0	571.0739218838905	723.4285420699854	0.0	460.5343968121881	768.6180221257324	0.0	472.4621174312641	802.3329603491727	0.0	477.3264767945132	844.3393425688222	0.0
129	5.16	500.8921905635916	833.850123492967	0.0	516.0430818933427	831.2608990015447	0.0	491.0362318458658	854.8067307665486	0.0	519.9169972643216	906.0034885493769	0.0	510.13030249107123	916.5806683018054	0.0	516.9117157021411	916.7968624259938	0.0	527.189511272052	916.5107163936166	0.0	489.7767452558702	837.6104682037503	0.0	444.8297783342397	879.5743704481462	0.0	434.14030535618184	941.6306282309711	0.0	419.6581290967065	957.2417081193125	0.0	417.89967158679855	958.4545829241114	0.0	438.46781843304126	952.265591063707	0.0	475.83186887013653	753.0499659576482	0.0	459.34078655481477	718.0950273253345	0.0	462.7274717125635	743.7118640516776	0.0	501.45177050317295	750.0256239885101	0.0	538.8383507972449	748.3923113135323	0.0	577.5329615400356	736.0491329025525	0.0	459.3015862229934	776.9832332110163	0.0	467.3313440497957	814.9126978168549	0.0	464.7766738691256	857.3887564679125	0.0
130	5.2	502.63299828633615	838.2230841403966	0.0	518.9662203502422	835.5005329583433	0.0	495.4396581018192	856.2589998568237	0.0	527.7728807376018	906.0917993143687	0.0	520.85116960879	915.9985874869897	0.0	528.4449328420608	915.748799220042	0.0	536.4296431429764	915.7712465212437	0.0	491.7734488473465	842.5385040066808	0.0	441.6409220632121	880.4586847532189	0.0	434.63170087784033	944.5336406412564	0.0	419.5725678934926	953.8343087287051	0.0	419.4653755437655	957.729364665755	0.0	439.0569836220737	955.3865664152011	0.0	479.0009489899658	758.780039441289	0.0	462.6051206056931	722.7030751734867	0.0	466.6634248799172	748.7703619476624	0.0	504.8704705398266	756.185341139229	0.0	544.3268677655296	757.2071804635417	0.0	586.4216473177063	746.4859117882205	0.0	460.5218507875751	781.7100165270598	0.0	465.28479884440566	823.8519025979964	0.0	455.4189438585036	861.1142861316009	0.0
131	5.24	508.71284227131184	839.133130923512	0.0	524.6698681315397	836.7964315047495	0.0	503.1382564796447	858.2340416258254	0.0	533.8698274634604	906.1581547077883	0.0	529.273554104362	915.8373861632147	0.0	537.4322271511444	915.2563705528069	0.0	542.000638590491	915.2775036656462	0.0	496.929652504563	843.3992158951402	0.0	442.8979563739498	882.0855578090207	0.0	434.5699686753012	944.8744032187756	0.0	417.3221044579294	951.3148627878536	0.0	420.82564434614727	962.8349477474028	0.0	439.01878022307045	954.2121604226281	0.0	485.36831502097806	760.5465248981765	0.0	470.39795694553084	723.692125208794	0.0	473.365518096678	749.3286941045824	0.0	511.9431878943882	758.6563100466665	0.0	552.5079983735593	762.5011133939333	0.0	595.049594450955	753.941677497593	0.0	465.6814120239324	782.6118200832013	0.0	468.3327490498467	827.1764091431605	0.0	453.169997833908	853.3792768986218	0.0
132	5.28	517.5785842264694	837.7974960317052	0.0	532.646230724467	835.7607751162333	0.0	513.4470583167138	858.8143148902413	0.0	536.7152791724276	906.4522668136752	0.0	532.4785763334248	917.5541669074895	0.0	540.1853055219416	916.589532933182	0.0	542.6913823298546	915.8995324772695	0.0	504.1172201819426	841.0708740281523	0.0	450.33953325499033	883.0468370595819	0.0	435.37166140319925	941.3816808879455	0.0	415.1468248078845	948.9392985279056	0.0	422.244514704921	965.4657099445574	0.0	438.7198548932169	950.0432965979305	0.0	495.47124392047465	758.8985827957747	0.0	481.63058996420534	721.3203204031109	0.0	482.6969767160384	746.1429327066613	0.0	522.5021661887985	758.0647630563113	0.0	562.3675423438538	764.3933876971695	0.0	602.4883645246455	758.1132897239077	0.0	475.7511949854935	780.0363840889065	0.0	477.57727745686816	824.0764704382972	0.0	459.5257327870617	837.1047706993616	0.0
133	5.32	527.7795175185443	834.9415406794735	0.0	542.6194295031823	832.9079079132503	0.0	523.8247311802364	857.2423050964896	0.0	536.2823299348859	908.3234198759098	0.0	529.6630843000119	920.2638105204544	0.0	537.4637779236748	918.854116736566	0.0	539.8911341835961	918.6965333064264	0.0	514.0084008687786	836.9641877334789	0.0	464.3572210417432	881.7394400020751	0.0	440.3153146416098	934.9273973822276	0.0	421.489059376357	943.7749637751035	0.0	427.3527963090297	955.5239553679187	0.0	441.36922393932156	944.2528739877145	0.0	508.89536714264807	754.8883152673752	0.0	495.00805226147577	716.5800910473914	0.0	495.2997407658025	740.9110382963411	0.0	535.151808046415	755.3535643426428	0.0	573.1647686343551	763.7349294605825	0.0	610.039241465843	759.3260981335957	0.0	489.6893627649902	774.95687876528	0.0	491.8809868587264	816.2282412180207	0.0	472.9594329245414	819.741306461025	0.0
134	5.36	539.1649449454842	831.4830886667955	0.0	554.2236603249985	829.6940599324017	0.0	532.078269629478	856.2652164908668	0.0	534.9542175082158	912.189962151949	0.0	524.4679273564968	922.1036249270262	0.0	534.5406502704005	920.5839920016999	0.0	536.8679225155771	922.9919882536362	0.0	526.5264410598764	832.9690947350991	0.0	480.85864441913736	879.2173782897557	0.0	450.64338948728914	929.8288511066801	0.0	437.2688196018861	938.9176163189429	0.0	439.2601477508674	943.2827851213804	0.0	449.8921278683456	940.4048319050814	0.0	523.9760916302489	750.2151079975472	0.0	510.17236597282533	711.3973940832752	0.0	510.54470123121894	735.8118973271932	0.0	548.6861541920129	751.8184698538394	0.0	585.2549536343752	761.9831310312993	0.0	618.690259589184	758.7661638952754	0.0	504.973777289679	769.2678235399733	0.0	508.0535834494111	807.5106021535628	0.0	489.4919091441574	806.4392827010416	0.0
135	5.4	551.5675278616886	828.3304726267356	0.0	566.393364878631	827.3635050437051	0.0	537.9035967557179	857.4396977690523	0.0	534.9757540997128	915.9854244414971	0.0	521.0199024073489	922.7841535992957	0.0	532.8511239531922	922.0404103432772	0.0	535.9818749819133	926.9229100875039	0.0	539.6778303250715	829.9399228196359	0.0	494.62512861390564	876.2337709794555	0.0	466.48043060988283	928.9479118183115	0.0	453.849841517666	939.4979915006138	0.0	454.5747043845368	941.8061580303608	0.0	465.66930949051886	941.083670991065	0.0	538.9286167686363	746.3139511790874	0.0	526.070591485903	707.4525901817177	0.0	526.2772872604826	732.1194218531623	0.0	562.7353623171173	748.7794638799969	0.0	599.479665932773	760.4927768638233	0.0	627.7936967372813	757.4830676041842	0.0	519.7690025189745	764.1707161988834	0.0	522.6501810239481	801.1180255512547	0.0	504.90141209111005	797.2960949939311	0.0
136	5.44	564.7835836761051	825.3059444827571	0.0	578.7041453242343	825.3911401509879	0.0	543.1839044451524	858.3099878026226	0.0	536.7377694733691	915.9494843790552	0.0	519.858435349861	922.9250483227838	0.0	529.2920906096879	923.4010843369861	0.0	537.4342852121492	927.6338074584444	0.0	552.9709623345873	826.8701891912658	0.0	506.6219746209773	871.0004113641795	0.0	489.4954791201179	929.0548353842621	0.0	469.608698577467	943.2547044016949	0.0	471.7510608165841	946.15638459346	0.0	490.8001036639514	942.0987521191241	0.0	553.2362979286415	742.9979120821608	0.0	541.3951896719682	704.4261776240062	0.0	541.4481445617922	729.0476764067544	0.0	577.5157557170768	746.6602550217634	0.0	615.8773419790925	760.0206962054071	0.0	635.9530553822264	756.1327312855364	0.0	533.8750796843462	759.5148476326815	0.0	534.433986201997	796.8501150526369	0.0	518.0833630813405	790.3624696598748	0.0
